<?xml version="1.0" encoding="utf-8"?>
<!-- Generator: Adobe Illustrator 19.0.0, SVG Export Plug-In . SVG Version: 6.00 Build 0)  -->
<svg version="1.1" id="Layer_1" xmlns="http://www.w3.org/2000/svg" xmlns:xlink="http://www.w3.org/1999/xlink" x="0px" y="0px"
	 width="201.8px" height="70.9px" viewBox="0 0 201.8 70.9" style="enable-background:new 0 0 201.8 70.9;" xml:space="preserve">
<style type="text/css">
	.st0{fill:#E43625;}
	.st1{fill:#009BDE;}
	.st2{fill:#FB261A;}
	.st3{fill:#26231F;}
	.st4{fill:#1D1D1B;}
	.st5{fill:none;stroke:#1D1D1B;stroke-width:0.216;stroke-miterlimit:22.9256;}
</style>
<g>
	<g>
		<g>
			<polyline class="st0" points="38.4,30.4 23.1,40.8 23.1,47 23.1,47 45.9,31.6 38.9,31.6 38.4,30.4 			"/>
			<polyline class="st1" points="46.1,31.6 45.9,31.6 45.9,31.6 23.1,47 23.1,53.2 23.1,53.2 46.1,37.6 46.1,31.6 			"/>
			<polyline class="st2" points="45.9,31.6 45.9,31.6 23.1,47 23.1,47 45.9,31.6 			"/>
			<polyline class="st1" points="45.9,31.6 45.9,31.6 23.1,47 23.1,47 45.9,31.6 			"/>
			<polyline class="st0" points="46.1,37.6 46.1,37.6 46.1,37.6 23.1,53.2 23.1,59.4 23.1,59.4 45.9,44 45.9,44 46.1,43.9 
				46.1,37.6 			"/>
			<polyline class="st1" points="46.1,37.6 23.1,53.2 23.1,53.2 46.1,37.6 46.1,37.6 			"/>
			<polyline class="st2" points="46.1,37.6 23.1,53.2 23.1,53.2 46.1,37.6 46.1,37.6 			"/>
			<polyline class="st1" points="45.9,44 23.1,59.4 23.1,65.7 45.9,50.2 45.9,44 			"/>
			<polyline class="st2" points="45.9,44 23.1,59.4 23.1,59.4 45.9,44 45.9,44 			"/>
			<polyline class="st1" points="45.9,44 23.1,59.4 23.1,59.4 45.9,44 45.9,44 			"/>
		</g>
		<g>
			<polyline class="st2" points="46.1,50.1 23.1,65.7 23.1,68.8 46.1,53 46.1,50.1 			"/>
			<polyline class="st0" points="26.3,29.2 23.1,29.2 23.1,34.6 23.1,34.5 27,31.9 26.3,29.2 			"/>
			<polyline class="st1" points="38,29.2 33.2,29.2 32.3,32 27.1,32 27,31.9 27,31.9 23.1,34.6 23.1,40.8 38.5,30.4 38,29.2 			"/>
			<polyline class="st2" points="27,31.9 23.1,34.5 23.1,34.6 27,31.9 27,31.9 			"/>
			<polyline class="st1" points="27,31.9 23.1,34.5 23.1,34.6 27,31.9 27,31.9 			"/>
			<polyline class="st0" points="22.1,0 22.1,27 24,27 24,9.7 33.7,4.6 22.1,0 			"/>
		</g>
		<path class="st3" d="M11.4,19.4L11.4,19.4c-1.9,0-3.5-1.6-3.5-3.5c0-1.9,1.6-3.5,3.5-3.5c1.9,0,3.5,1.6,3.5,3.5
			C14.9,17.9,13.3,19.4,11.4,19.4 M35.4,11.4v2.7h-1v-2.7h-4.1v2.7h-9.1h-2.5c-0.8-3.3-3.8-5.7-7.3-5.7c-4.2,0-7.6,3.4-7.6,7.6
			c0,4.2,3.4,7.6,7.6,7.6c3.4,0,6.3-2.2,7.2-5.3h2.6h13.2h5.1v-6.8H35.4z"/>
		<path class="st0" d="M20,45.7c0-3.1-2.5-5.6-5.6-5.6c-3.1,0-5.6,2.5-5.6,5.6c0,3.1,2.5,5.6,5.6,5.6C17.5,51.3,20,48.8,20,45.7"/>
		<path class="st3" d="M17.4,40.7L17.4,40.7c-0.1,0-0.3,0-0.4,0c-1.4,0.1-2.9,0.4-4.4,1.1c-1.4,0.6-2.6,1.3-3.5,2.1
			c-1.8,1.6-2.7,3.4-2.1,4.8C7.5,50,9,50.6,11,50.6c1.5,0,3.2-0.3,4.9-1.1c4-1.7,6.5-4.8,5.6-7C20.9,41.4,19.4,40.7,17.4,40.7
			 M17.4,42c1.5,0,2.6,0.4,2.9,1.1c0.2,0.6-0.1,1.5-0.8,2.4c-0.9,1.1-2.4,2.2-4.2,2.9c-1.5,0.6-3,1-4.4,1c-1.5,0-2.6-0.4-2.9-1.1
			c-0.3-0.8,0.4-2.2,1.8-3.4c0.9-0.8,2-1.4,3.2-1.9c1.4-0.6,2.7-0.9,4-1C17.2,42,17.3,42,17.4,42z"/>
		<path class="st2" d="M20,45.7c0-3.1-2.5-5.6-5.6-5.6c-3.1,0-5.6,2.5-5.6,5.6c0,3.1,4.8-1.7,7.7-2.6C19.2,42.2,20,45.7,20,45.7"/>
		<path class="st4" d="M23.1,64.7L41,52.8V33.9c-2.2-0.4-3.9-2-4.6-4.1h-1.2c-0.8,2.4-3.1,4.2-5.8,4.2c-2.7,0-5-1.8-5.8-4.2h-1
			c-2,5.5-9.9,5.6-11.8,0H9.5c-0.6,2-2.3,3.8-4.4,4.1c-0.1,0,0,17.5,0,18.9L23.1,64.7z M3.7,30.2L3.7,30.2c1.3,0,2.3-1,2.3-2.3V26
			h8.2v1.9c0,1.3,1,2.3,2.3,2.3c1.3,0,2.3-1,2.3-2.3V26c2.8,0,5.5,0,8.3,0v1.9c0,1.3,1,2.3,2.3,2.3c1.3,0,2.3-1,2.3-2.3V26h8.2v1.9
			c0,1.3,1,2.3,2.3,2.3v0H46v25.3l-23,15.3l-23-15.3V30.2H3.7z"/>
		<path class="st5" d="M23.1,64.7L41,52.8V33.9c-2.2-0.4-3.9-2-4.6-4.1h-1.2c-0.8,2.4-3.1,4.2-5.8,4.2c-2.7,0-5-1.8-5.8-4.2h-1
			c-2,5.5-9.9,5.6-11.8,0H9.5c-0.6,2-2.3,3.8-4.4,4.1c-0.1,0,0,17.5,0,18.9L23.1,64.7z M3.7,30.2L3.7,30.2c1.3,0,2.3-1,2.3-2.3V26
			h8.2v1.9c0,1.3,1,2.3,2.3,2.3c1.3,0,2.3-1,2.3-2.3V26c2.8,0,5.5,0,8.3,0v1.9c0,1.3,1,2.3,2.3,2.3c1.3,0,2.3-1,2.3-2.3V26h8.2v1.9
			c0,1.3,1,2.3,2.3,2.3v0H46v25.3l-23,15.3l-23-15.3V30.2H3.7z"/>
		<path class="st4" d="M79.9,42.8v-17h5v8.4l6.5-8.4h4.3v17h-5v-8.4l-6.4,8.4H79.9z M108.8,38.3v-8h-3.1c0,1.3-0.1,2.8-0.3,4.3
			c-0.2,1.5-0.5,2.8-1,3.7H108.8z M97.4,46v-7.6h1.7c1.1-2,1.6-5,1.6-9.2v-3.3H114v12.5h2.1V46h-4.9v-3.1h-8.9V46H97.4z M120.7,40.7
			c-1.8-1.6-2.8-3.8-2.8-6.4c0-2.6,0.9-4.7,2.7-6.3c1.8-1.6,4.1-2.5,6.9-2.5c1.7,0,3.1,0.3,4.3,0.9v4.9c-1.4-0.8-2.8-1.1-4.1-1.1
			c-1.3,0-2.3,0.4-3.2,1.2c-0.8,0.8-1.3,1.7-1.3,2.9c0,1.2,0.4,2.2,1.3,3c0.9,0.8,2,1.1,3.3,1.1c1.7,0,3.1-0.4,4.2-1.2v5
			c-1.2,0.6-2.7,0.9-4.5,0.9C124.8,43.2,122.5,42.3,120.7,40.7z M134.8,42.8v-17h15.4v17H145V30.4h-5v12.5H134.8z M153.3,42.8v-17
			h13.3v4.5h-8.1v1.5h6.3V36h-6.3v2.4h8.2v4.5H153.3z M173.8,23.9c-0.9-0.8-1.4-1.9-1.4-3.2h3.3c0,0.9,0.5,1.3,1.4,1.3
			c0.9,0,1.4-0.4,1.4-1.3h3.3c0,1.4-0.5,2.4-1.4,3.2c-0.9,0.8-2,1.2-3.3,1.2C175.8,25,174.7,24.7,173.8,23.9z M169.2,42.8v-17h5v8.4
			l6.5-8.4h4.3v17h-5v-8.4l-6.4,8.4H169.2z M190.4,40.7c-1.8-1.6-2.8-3.8-2.8-6.4c0-2.6,0.9-4.7,2.7-6.3c1.8-1.6,4.1-2.5,6.9-2.5
			c1.7,0,3.1,0.3,4.3,0.9v4.9c-1.4-0.8-2.8-1.1-4.1-1.1c-1.3,0-2.3,0.4-3.2,1.2c-0.8,0.8-1.3,1.7-1.3,2.9c0,1.2,0.4,2.2,1.3,3
			c0.9,0.8,2,1.1,3.3,1.1c1.7,0,3.1-0.4,4.2-1.2v5c-1.2,0.6-2.7,0.9-4.5,0.9C194.5,43.2,192.2,42.3,190.4,40.7z M61.1,42.8v-17h5.2
			v6.3l4.8-6.3h6.1l-6,7.9l7.2,9.1H72l-5.7-7.3v7.3H61.1z"/>
		<path class="st4" d="M168.8,54.3c0.4-1,0.6-2.2,0.6-3.6h1.5v3.6H168.8z M168,57v-1.3h4V57h1.6v-2.8h-0.9v-5.1h-4.9v1.2
			c0,1.8-0.3,3.1-0.8,3.9h-0.6V57H168z M165.1,54.9c0.7-0.7,1-1.5,1-2.4c0-0.9-0.3-1.8-1-2.4c-0.7-0.7-1.5-1-2.5-1
			c-1,0-1.8,0.3-2.5,1c-0.7,0.7-1,1.5-1,2.4c0,0.9,0.3,1.8,1,2.4c0.7,0.7,1.5,1,2.5,1C163.6,55.9,164.4,55.5,165.1,54.9z
			 M161.4,53.8c-0.3-0.3-0.5-0.8-0.5-1.3c0-0.5,0.2-1,0.5-1.3c0.3-0.3,0.7-0.5,1.2-0.5c0.5,0,0.9,0.2,1.2,0.5
			c0.3,0.3,0.5,0.8,0.5,1.3c0,0.5-0.2,1-0.5,1.3c-0.3,0.3-0.7,0.5-1.2,0.5C162.1,54.3,161.7,54.1,161.4,53.8z M154.8,50.6h1.1
			c0.5,0,0.8,0.2,0.8,0.6s-0.3,0.7-0.8,0.7h-1.1V50.6z M154.8,55.7v-2.5h1.2c0.7,0,1.3-0.2,1.7-0.6c0.4-0.4,0.6-0.9,0.6-1.5
			s-0.2-1.1-0.6-1.5c-0.4-0.4-1-0.6-1.7-0.6h-2.9v6.6H154.8z M151,54.9c0.7-0.7,1-1.5,1-2.4c0-0.9-0.3-1.8-1-2.4
			c-0.7-0.7-1.5-1-2.5-1c-1,0-1.8,0.3-2.5,1c-0.7,0.7-1,1.5-1,2.4c0,0.9,0.3,1.8,1,2.4c0.7,0.7,1.5,1,2.5,1
			C149.5,55.9,150.3,55.5,151,54.9z M147.2,53.8c-0.3-0.3-0.5-0.8-0.5-1.3c0-0.5,0.2-1,0.5-1.3c0.3-0.3,0.7-0.5,1.2-0.5
			c0.5,0,0.9,0.2,1.2,0.5c0.3,0.3,0.5,0.8,0.5,1.3c0,0.5-0.2,1-0.5,1.3c-0.3,0.3-0.7,0.5-1.2,0.5C148,54.3,147.6,54.1,147.2,53.8z
			 M141.4,55.7v-5.1h3.2v-1.5h-4.9v6.6H141.4z M131.2,47.2c0,0.5,0.2,0.9,0.5,1.2c0.3,0.3,0.8,0.4,1.3,0.4c0.5,0,0.9-0.2,1.3-0.4
			c0.3-0.3,0.5-0.7,0.5-1.2h-1.2c0,0.4-0.2,0.6-0.6,0.6c-0.4,0-0.6-0.2-0.6-0.6H131.2z M131.5,55.7l2.8-3.7v3.7h1.7v-6.6h-1.5
			l-2.7,3.7v-3.7h-1.7v6.6H131.5z M124.3,55.7L127,52v3.7h1.7v-6.6h-1.5l-2.7,3.7v-3.7h-1.7v6.6H124.3z M117.5,55.7v-2.9l2.6,2.9
			h2.1l-3-3.6l2.5-3h-2l-2.1,2.5v-2.5h-1.7v6.6H117.5z M112.9,55.9c0.7,0,1.3-0.1,1.8-0.4v-1.7c-0.5,0.3-1,0.5-1.7,0.5
			c-0.6,0-1.1-0.2-1.4-0.5c-0.4-0.3-0.6-0.8-0.6-1.3c0-0.5,0.2-1,0.6-1.3c0.4-0.3,0.8-0.5,1.4-0.5c0.6,0,1.2,0.2,1.7,0.5v-1.7
			c-0.5-0.3-1.1-0.4-1.7-0.4c-1.1,0-1.9,0.3-2.6,1c-0.7,0.6-1,1.5-1,2.5c0,1,0.3,1.8,1,2.5C111,55.5,111.8,55.9,112.9,55.9z
			 M106.9,55.7v-5.1h2v-1.5h-5.6v1.5h2v5.1H106.9z M102.6,55.7v-1.5h-3.4V53h2.6v-1.4h-2.6v-0.9h3.3v-1.5h-5v6.6H102.6z M91.9,54.3
			c0.4-1,0.6-2.2,0.6-3.6H94v3.6H91.9z M91,57v-1.3h4V57h1.6v-2.8h-0.9v-5.1h-4.9v1.2c0,1.8-0.3,3.1-0.8,3.9h-0.6V57H91z"/>
	</g>
</g>
<g id="XMLID_14_">
</g>
<g id="XMLID_15_">
</g>
<g id="XMLID_16_">
</g>
<g id="XMLID_17_">
</g>
<g id="XMLID_18_">
</g>
<g id="XMLID_19_">
</g>
</svg>
