<?xml version="1.0" standalone="no"?>
<!DOCTYPE svg PUBLIC "-//W3C//DTD SVG 20010904//EN"
 "http://www.w3.org/TR/2001/REC-SVG-20010904/DTD/svg10.dtd">
<svg version="1.0" xmlns="http://www.w3.org/2000/svg"
 width="400.000000pt" height="400.000000pt" viewBox="0 0 400.000000 400.000000"
 preserveAspectRatio="xMidYMid meet">
<metadata>
Created by potrace 1.11, written by Peter Selinger 2001-2013
</metadata>
<g transform="translate(0.000000,400.000000) scale(0.100000,-0.100000)"
fill="#000000" stroke="none">
<path d="M0 2000 l0 -2000 2000 0 2000 0 0 2000 0 2000 -2000 0 -2000 0 0
-2000z m3155 995 c193 -54 353 -182 426 -340 27 -60 49 -152 49 -207 l0 -28
-134 0 -133 0 -6 59 c-20 225 -241 361 -523 323 -139 -19 -235 -74 -291 -170
-35 -59 -44 -180 -19 -246 37 -98 170 -184 376 -246 263 -78 311 -95 402 -142
222 -113 338 -283 338 -493 0 -243 -164 -429 -448 -507 -65 -18 -104 -22 -257
-22 -167 0 -186 2 -268 27 -295 91 -467 266 -484 495 l-6 72 130 0 131 0 6
-54 c9 -72 54 -163 103 -207 146 -132 450 -167 645 -75 119 56 188 173 174
294 -21 180 -152 274 -506 362 -201 51 -380 142 -486 248 -211 209 -183 546
61 735 84 65 219 121 340 140 65 11 320 -2 380 -18z m-1785 -29 c278 -77 420
-260 408 -527 -3 -72 -9 -97 -36 -152 -38 -76 -120 -158 -202 -199 -42 -22
-49 -29 -34 -34 10 -3 51 -21 90 -40 163 -78 264 -253 264 -459 -1 -282 -164
-476 -452 -536 -83 -17 -139 -19 -520 -19 l-428 0 0 996 0 995 423 -4 c366 -3
431 -6 487 -21z"/>
<path d="M740 2460 l0 -322 263 4 c299 4 338 13 417 89 66 64 85 116 84 229 0
115 -22 169 -92 230 -80 71 -137 83 -424 88 l-248 4 0 -322z"/>
<path d="M740 1570 l0 -360 248 0 c275 0 350 8 430 48 114 56 167 154 167 307
-1 201 -89 324 -254 355 -29 5 -175 10 -322 10 l-269 0 0 -360z"/>
</g>
</svg>
