<svg xmlns="http://www.w3.org/2000/svg" width="242" height="48" viewBox="0 0 242 48">
  <defs>
    <style>
      .cls-1 {
        fill: #f31d25;
      }

      .cls-2 {
        fill: #fefefe;
        fill-rule: evenodd;
      }
    </style>
  </defs>
  <rect class="cls-1" width="242" height="48"/>
  <path id="NIKITA_FLORINSKIY" data-name="NIKITA FLORINSKIY" class="cls-2" d="M15.35,29.88H18.5V23.886c0-.81-0.144-2.2-0.144-2.2h0.036a23.039,23.039,0,0,0,1.08,2.2l3.582,5.993h3.168V17.011h-3.15v6.011c0,0.81.144,2.2,0.144,2.2H23.179a23.025,23.025,0,0,0-1.08-2.2l-3.564-6.011H15.35V29.88Zm16.272,0h3.15V17.011h-3.15V29.88Zm8.55,0h3.15V24.66h1.3l2.718,5.22h3.528L47.191,23.2V23.166l3.474-6.155H47.281l-2.664,4.968h-1.3V17.011h-3.15V29.88Zm14.85,0h3.15V17.011h-3.15V29.88Zm11.322,0h3.15V19.711H73.4v-2.7H62.438v2.7h3.906V29.88Zm8.91,0h3.24l0.774-2.7h4.014l0.792,2.7h3.24L82.939,17.011H79.627Zm4.751-5.219,0.738-2.5c0.234-.81.522-2.214,0.522-2.214H81.3s0.288,1.4.522,2.214l0.72,2.5H80.005Zm17.964,5.22h3.15V25.11h3.923v-2.7h-3.923v-2.7h4.733v-2.7H97.969V29.88Zm12.366,0h8.405v-2.7h-5.255V17.011h-3.15V29.88Zm11.592-6.515a6.731,6.731,0,1,0,13.462,0A6.733,6.733,0,0,0,121.927,23.364Zm3.257,0a3.48,3.48,0,1,1,6.948,0A3.493,3.493,0,1,1,125.184,23.364Zm14.905,6.515h3.149V25.542h1.476L147,29.88h3.509l-2.5-4.5a7.365,7.365,0,0,0-.486-0.774V24.57a3.917,3.917,0,0,0,1.926-3.51,3.741,3.741,0,0,0-2.376-3.744,6.659,6.659,0,0,0-2.5-.306h-4.481V29.88Zm3.149-7.037V19.711H144.3a3,3,0,0,1,1.188.18,1.265,1.265,0,0,1,.756,1.368,1.473,1.473,0,0,1-1.638,1.584h-1.368Zm11.394,7.037h3.15V17.011h-3.15V29.88Zm8.55,0h3.15V23.886c0-.81-0.144-2.2-0.144-2.2h0.036a23.024,23.024,0,0,0,1.08,2.2l3.581,5.993h3.168V17.011H170.9v6.011c0,0.81.144,2.2,0.144,2.2h-0.036a23.172,23.172,0,0,0-1.079-2.2l-3.564-6.011h-3.186V29.88Zm15.39-1.62a6.664,6.664,0,0,0,4.662,1.836c2.969,0,4.571-1.854,4.571-4.014,0-4.068-5.687-3.636-5.687-5.471,0-.522.414-0.918,1.368-0.918a4.641,4.641,0,0,1,2.843,1.134l1.332-2.574a6.078,6.078,0,0,0-4.031-1.458c-2.7,0-4.662,1.566-4.662,3.942,0,4.032,5.688,3.744,5.688,5.561,0,0.5-.45.9-1.332,0.9a5.188,5.188,0,0,1-3.1-1.332ZM192.5,29.88h3.15V24.66h1.3l2.717,5.22H203.2L199.523,23.2V23.166L203,17.011h-3.384l-2.663,4.968h-1.3V17.011H192.5V29.88Zm14.85,0h3.15V17.011h-3.15V29.88Zm11.268,0h3.149V24.606l4.248-7.6h-3.582l-1.44,3.1c-0.414.882-.774,1.854-0.774,1.854h-0.036s-0.36-.972-0.774-1.854l-1.457-3.1h-3.582l4.248,7.6V29.88Z"/>
</svg>
